<svg width="33" height="32" viewBox="0 0 33 32" fill="none" xmlns="http://www.w3.org/2000/svg">
<g clip-path="url(#clip0_1_35)">
<path fill-rule="evenodd" clip-rule="evenodd" d="M9.24702 15.059C9.2365 14.2235 9.39198 13.3942 9.70445 12.6192C10.0169 11.8443 10.4801 11.139 11.0673 10.5445C11.6544 9.94993 12.3537 9.47787 13.1247 9.15567C13.8957 8.83348 14.7229 8.66757 15.5585 8.66757C16.3941 8.66757 17.2214 8.83348 17.9924 9.15567C18.7633 9.47787 19.4627 9.94993 20.0498 10.5445C20.6369 11.139 21.1001 11.8443 21.4126 12.6192C21.7251 13.3942 21.8805 14.2235 21.87 15.059C21.8491 16.7192 21.175 18.3042 19.9936 19.4708C18.8122 20.6374 17.2188 21.2916 15.5585 21.2916C13.8982 21.2916 12.3048 20.6374 11.1234 19.4708C9.94207 18.3042 9.26791 16.7192 9.24702 15.059ZM20.527 21.087C18.9783 22.3634 16.9978 22.9948 14.9961 22.8503C12.9943 22.7058 11.125 21.7964 9.77573 20.3108C8.42643 18.8252 7.70063 16.8773 7.74884 14.8709C7.79705 12.8646 8.61556 10.9538 10.0347 9.53467C11.4538 8.11556 13.3646 7.29705 15.3709 7.24884C17.3773 7.20063 19.3252 7.92643 20.8108 9.27573C22.2964 10.625 23.2058 12.4943 23.3503 14.4961C23.4948 16.4978 22.8634 18.4783 21.587 20.027L25.034 23.473C25.1077 23.5417 25.1668 23.6245 25.2078 23.7165C25.2488 23.8085 25.2708 23.9078 25.2726 24.0085C25.2744 24.1092 25.2559 24.2092 25.2181 24.3026C25.1804 24.396 25.1243 24.4808 25.0531 24.5521C24.9818 24.6233 24.897 24.6794 24.8036 24.7171C24.7102 24.7549 24.6102 24.7734 24.5095 24.7716C24.4088 24.7698 24.3095 24.7478 24.2175 24.7068C24.1255 24.6658 24.0427 24.6067 23.974 24.533L20.527 21.087Z" fill="#949494"/>
</g>
<defs>
<clipPath id="clip0_1_35">
<rect width="32" height="32" fill="white" transform="translate(0.5)"/>
</clipPath>
</defs>
</svg>
